/* XPM */
static char *wxdfast_xpm[] = {
/* columns rows colors chars-per-pixel */
"32 32 215 2",
"oX c #FE1818",
"+. c #D50E0E",
".  c Black",
"P. c #2323A8",
"). c #AD1717",
"Z. c #FF2B2B",
"e  c #2929FF",
"^. c #A11212",
"w. c #B21818",
"M. c #1A1AFF",
"'. c #890B0B",
"f  c #1C1C9B",
"L. c #1C1C9C",
"1. c #2A2ADD",
"e. c #FF2222",
"!  c #C81F1F",
"J  c #950A0A",
"[  c #F62D2D",
"v  c #CF1A1A",
"6  c #0B0BFF",
"|. c #9F1212",
"V. c #FB2E2E",
"{  c #A10606",
"i  c #15158E",
"B. c #A41313",
"6X c #DE2323",
"D  c #FD2222",
"A  c #F12020",
"K  c #E32727",
"a  c #3A3AD2",
"&X c #FF1313",
".X c #A21313",
"*X c #FF0D0D",
"a. c #A71414",
"H  c #2424BE",
"}. c #D91010",
"1X c #790303",
"s. c #F72E2E",
"H. c #4949FF",
"q. c #E70606",
"u  c #2323FF",
"'  c #660000",
"r  c #16168F",
"3. c #B30D0D",
">. c #A51414",
"#  c #1515C6",
"7  c #000066",
"K. c #000067",
"$  c #1515C8",
"@. c #000068",
"r. c #000069",
"<. c #CD0505",
"*  c #1C1CE9",
"R. c #BD1515",
";. c #00006A",
"3  c #5151FF",
"X  c #00006C",
":  c #1414FF",
"S. c #00006D",
"*. c #8D0D0D",
",  c #00006E",
"R  c #AA1515",
"l. c #000070",
":. c #000071",
"m. c #2B2BFF",
"%X c #FB1010",
"@X c #EF0E0E",
"Z  c #EB2020",
")  c #E92929",
"M  c #D31C1C",
"t  c #0F0F83",
"<  c #000077",
"qX c #D82020",
"1  c #00007A",
"Q  c #CC1E1E",
"3X c #DD2424",
"o  c #00007D",
"(  c #D12222",
";  c #1C1CFF",
"L  c #FF3030",
"z. c #000080",
"B  c #D81D1D",
"D. c #000082",
"T  c #970F0F",
"8. c #000085",
"|  c #750000",
",X c #FF2D2D",
"F. c #00008C",
"l  c #9E0707",
"C. c #FF2A2A",
"9. c #00008E",
"O  c #000091",
"G. c #3434DA",
"U. c #2D2DBA",
"/. c #AF0A0A",
"2. c #860000",
"9X c #DB2121",
"E  c #A61515",
"x. c #00009A",
"J. c #FF2424",
"7. c #A80909",
"+  c #0000A2",
";X c #D42020",
"-X c #840303",
"]  c #AB1616",
"t. c #2626AE",
"6. c #A60F0F",
"W  c #F62C2C",
"N  c #D41D1D",
"[. c #C81818",
"T. c #EF2B2B",
"q  c #3535C9",
"5  c #3434FF",
"   c none",
"~  c #C61E1E",
"x  c #CD1919",
" . c #6F0303",
"4  c #4B4BFF",
"y. c #0000C2",
"u. c #0000C3",
"c. c #0000C4",
"i. c #0000C6",
"p. c #0000C8",
"8X c #DC2222",
"Q. c #B31818",
"s  c #181893",
" X c #F11616",
"k  c #1F1FB5",
"@  c #1717C8",
">X c #FE2E2E",
"2X c #C91F1F",
"%  c #1717D4",
"b. c #0000DA",
"=  c #1E1EF4",
"0. c #F72D2D",
"b  c #D01A1A",
"d. c #FF0909",
".. c #720404",
"=X c #FF0606",
"5X c #DF2323",
"E. c #B61919",
"-. c #2020A2",
"n. c #2727C4",
",. c #F52D2D",
"v. c #0000F0",
"_. c #F02626",
"Y. c #9E1212",
"j. c #BB1A1A",
"S  c #F72121",
"OX c #8F0000",
"w  c #4545E7",
"$. c #FA2E2E",
"o. c #B41919",
"4. c #DF1A1A",
"(. c #690000",
"Y  c #7A0606",
"#. c #A81414",
"P  c #FF2C2C",
"5. c #F71818",
"n  c #D11B1B",
"O. c #F82E2E",
"h  c #2828B2",
"wX c #BB0B0B",
"~. c #FF2626",
"g  c #1919AD",
"+X c #C20606",
"]. c #C31C1C",
"d  c #3737CD",
"&. c #AF0606",
"k. c #FF2323",
"`  c #2121A4",
"U  c #2121A5",
"4X c #DE2424",
"8  c #1A1A96",
"N. c #1818FD",
"C  c #E51F1F",
"#X c #F31515",
"2  c #1A1AA2",
"V  c #DE1E1E",
"9  c #3F3FDD",
"X. c #800808",
"m  c #D21C1C",
"h. c #F31212",
"&  c #1919DE",
"-  c #2020FF",
"!. c #960F0F",
"^  c #C41D1D",
"y  c #3838CF",
"A. c #FE2D2D",
"z  c #CB1818",
"F  c #FA0707",
"`. c #C10D0D",
"_  c #E00C0C",
"%. c #F72C2C",
"=. c #C60E0E",
"}  c #850000",
"I  c #EC0808",
"0X c #DA2121",
":X c #F72929",
"0  c #3131C2",
"XX c #F02B2B",
"g. c #F61010",
"G  c #1B1B9A",
"j  c #1B1B9B",
"f. c #FD0B0B",
"p  c #050570",
"/  c #C71E1E",
"c  c #CE1919",
"{. c #9E1111",
">  c #0A0AFF",
"I. c #2A2AB5",
"$X c #EE2B2B",
"<X c #E80E0E",
"7X c #DD2222",
"W. c #B41818",
/* pixels */
"                                                                ",
"                                                                ",
"  . . . . . . . . . . . . . . .                                 ",
"  X o O + @ # $ % & * = - ; : > .                               ",
"  , < 1 o 2 3 3 3 3 3 3 3 3 3 3 4 5 6 .                         ",
"      7 7 7 7 8 3 3 3 9 0 q w 3 3 3 3 e .                       ",
"      7 7 7 7 r 3 3 3 7 7 7 7 t y 3 3 3 u .                     ",
"      7 7 7 7 i 3 3 3 . 7 7 7 7 p a 3 3 3 .                     ",
"      7 7 7 7 s 3 3 3   . 7 7 7 7 t 3 3 3 5 .                   ",
"      7 7 7 7 s 3 3 .     7 7 7 7 7 d 3 3 3 .                   ",
"      7 7 7 7 f 3 3 g     7 7 7 7 7 h 3 3 3 .                   ",
"      7 7 7 7 j 3 3 k   l z x c v b n m M N B V C Z A S D F .   ",
"      7 7 7 7 G 3 3 H   J K L L L L L L L L L L L L L L P I .   ",
"      7 7 7 7 U 3 3 .   Y T R E L L L W Q ! ~ ^ / ( ) L L _ .   ",
"      7 7 7 7 ` 3 3 .   ' ' ' ] [ L L W { } |  ...X.o.O.L +..   ",
"      7 7 7 7 ` 3 3 .   . @.' #.$.L L %.&.3 . . ' ' *.( L =..   ",
"      7 7 7 7 -.3 3 .   ;.:.' >.,.L L L <.1.. 2.3.4.5.>.6.7..   ",
"      7 7 7 7 -.3 3 . o 8.9.' >.0.L L L q.. ' ' w.L e.. . . .   ",
"    O r.7 7 7 t.3 3 y.u.i.p.' a.s.L L L d.f.g.h.j.L k..         ",
"  l.z.x.c.v.b.n.3 3 m.M.: N.' B.[ L L V.C.Z.P A.L L k..         ",
"  S.< D.F.G.H.3 3 3 3 3 3 3 ' B.0.L L L L L L L L L J..         ",
"  . . . K.L.P.I.0 0 0 0 0 U.' Y.T.L L L R.E.W.Q.!.L ~..         ",
"          . . . . . . . . . ' ^.T.L L L /.(.' ' ).s._..         ",
"                            ' ^.T.L L L `.. . ' '.].[..         ",
"                            ' {.T.L L L }..   . . . . .         ",
"                            ' |.T.L L L  X.                     ",
"                            ' .XXXL L L oX.                     ",
"                        OX+X@X#X$XL L L %X&X*X=X.               ",
"                        -X;X:X>XL L L L L ,XP <X.               ",
"                        1X2X3X4X5X6X7X8X9X0XqXwX.               ",
"                        . . . . . . . . . . . . .               ",
"                                                                "
};
