/* XPM */
static char *dummy[]={
"24 24 42 1",
". c None",
"v c #0e0034",
"w c #170057",
"y c #1a0064",
"N c #1e0075",
"u c #1f0076",
"M c #220081",
"J c #220082",
"D c #240088",
"H c #240089",
"k c #25008c",
"K c #25008d",
"I c #25008f",
"z c #260091",
"x c #260092",
"L c #270095",
"t c #270096",
"F c #270097",
"j c #280099",
"G c #2b0b83",
"E c #2f0f88",
"c c #3c2375",
"C c #402388",
"r c #4a2c8d",
"p c #4c2e8d",
"s c #4c2f8c",
"n c #4e318d",
"i c #50338d",
"d c #808080",
"b c #a69d7f",
"A c #b0b07c",
"o c #b5ab8c",
"m c #b7ad8c",
"q c #b8af8d",
"h c #b9b08c",
"B c #bfbf84",
"# c #d5d580",
"e c #e6e68b",
"a c #e9e98c",
"l c #fdfd98",
"g c #fefe98",
"f c #ffffff",
"......#aaaaaaaaaabc.....",
".....defffffffghijk.....",
".....deffffflmnjjjk.....",
".....deffflopjjjjjk.....",
".....deffqrjjjjjjjk.....",
".....deffsjjjjjjjjk.....",
".....deffsjjjjjjjjk.....",
".....deffsjjjjjjjjk.....",
".....deffsjjjjjjjjk.....",
".....deffsjjjjjjjjk.....",
".....deffsjjjjjjjjk.....",
".....deffsjjjjjjjjk.....",
".....deffsjjjtjjjjk.....",
".....deffsjuvwjjjjk.....",
".....deffsxyzjjjjjk.....",
".....deffsjjjjjjjjk.....",
".....deffsjjjjjjjjk.....",
".....dABBCjjjjjjjjD.....",
".....ddddEjjjjjjFG......",
".........HjjjjjI........",
".........HjjjtJ.........",
".........HjjK...........",
".........HLM............",
".........N.............."};
