/* XPM */
static char * down_xpm[] = {
"24 24 51 1",
" 	c None",
".	c #000051",
"+	c #00006C",
"@	c #111164",
"#	c #000080",
"$	c #000060",
"%	c #808080",
"&	c #2F2F6C",
"*	c #67676C",
"=	c #262665",
"-	c #00005A",
";	c #00005C",
">	c #00005E",
",	c #0D0D6E",
"'	c #696974",
")	c #030378",
"!	c #000078",
"~	c #44446C",
"{	c #7E7E7E",
"]	c #20206E",
"^	c #000069",
"/	c #707077",
"(	c #080875",
"_	c #000077",
":	c #51516E",
"<	c #00007E",
"[	c #00007F",
"}	c #29296C",
"|	c #000066",
"1	c #777778",
"2	c #0D0D73",
"3	c #000072",
"4	c #5F5F71",
"5	c #01017B",
"6	c #00007D",
"7	c #38386C",
"8	c #000062",
"9	c #7C7C7C",
"0	c #14146F",
"a	c #000071",
"b	c #686873",
"c	c #040479",
"d	c #00007C",
"e	c #46466D",
"f	c #1F1F6D",
"g	c #00006D",
"h	c #717177",
"i	c #070775",
"j	c #00007A",
"k	c #4E4E6C",
"l	c #000058",
"     .++++++++++++.     ",
"     @############$     ",
"    %&############$     ",
"    *=############-     ",
";######################>",
" ,####################+ ",
"%')##################!  ",
"%%~##################   ",
"%%{]################^   ",
" %%/(##############_    ",
"  %%:<############[     ",
"  %%%}############|     ",
"   %%12##########3      ",
"    %%45########6       ",
"    %%%7########8       ",
"     %%90######a        ",
"      %%bc####d         ",
"      %%%e[###>         ",
"       %%{f##g          ",
"        %%hij           ",
"        %%%kl           ",
"         %%             ",
"          %             ",
"                        "};
