/* XPM */
static char * properties_xpm[] = {
"24 24 43 1",
" 	c None",
".	c #007F00",
"+	c #009900",
"@	c #008700",
"#	c #808080",
"$	c #1D8D1D",
"%	c #00AE00",
"&	c #819D81",
"*	c #9CCB9C",
"=	c #8AB38A",
"-	c #BBBBBB",
";	c #FFFFFF",
">	c #E1E1E1",
",	c #D0D0D0",
"'	c #989898",
")	c #BDBDBD",
"!	c #CCCCCC",
"~	c #919191",
"{	c #B8B8B8",
"]	c #EFEFEF",
"^	c #DDDDDD",
"/	c #E9E9E9",
"(	c #ADADAD",
"_	c #4C4C4C",
":	c #8D8D8D",
"<	c #9D9D9D",
"[	c #2A2A2A",
"}	c #777777",
"|	c #ABABAB",
"1	c #484848",
"2	c #8A8A8A",
"3	c #E3E3E3",
"4	c #C2C2C2",
"5	c #D8D8D8",
"6	c #CBCBCB",
"7	c #B6B6B6",
"8	c #C4C4C4",
"9	c #7E7E7E",
"0	c #ACACAC",
"a	c #979797",
"b	c #B9B9B9",
"c	c #BFBFBF",
"d	c #BABABA",
"    .++++++++++++++@    ",
"   #$%%%%%%%%%%%%%%+    ",
"   #&**************=    ",
"   #-;;;;;;;;;;;;;;>    ",
"   #-;;;;;;;;;;;;;;>    ",
"   #-;;;;;;;;;;;;;;>    ",
"   #-;;;;;;;;;;;;;;>    ",
"   #-;;;;;;;;;;;;;;>    ",
"   #-;,'''''''''');>    ",
"   #-;!~~~~~~~~~~{;>    ",
"   #-;]^^^^^^^^^^/;>    ",
"   #-;(__________:;>    ",
"   #-;;;;;;;;;;;;;;>    ",
"   #-;<[[[[[[[[[[};>    ",
"   #-;;;;;;;;;;;;;;>    ",
"   #-;|11111111112;>    ",
"   #-;344444444445;>    ",
"   #-;6::::::::::7;>    ",
"   #-;899999999990;>    ",
"   #-;;;;;;;;;;;;;;>    ",
"   #-;;;;;;;;;;;;;;>    ",
"   #-;;;;;;;;;;;;;;>    ",
"   #abbbbbbbbbbbbbcd    ",
"   ################     "};
