/* XPM */
static char * remove_xpm[] = {
"24 24 33 1",
" 	c None",
".	c #C80000",
"+	c #CF0000",
"@	c #CA0000",
"#	c #FE0000",
"$	c #FB0000",
"%	c #D60000",
"&	c #FF0000",
"*	c #F70000",
"=	c #D00000",
"-	c #DD0000",
";	c #A02D2D",
">	c #E00000",
",	c #808080",
"'	c #7F7F7F",
")	c #B13131",
"!	c #BE1313",
"~	c #7D7D7D",
"{	c #D61010",
"]	c #C40B0B",
"^	c #B92B2B",
"/	c #D90000",
"(	c #9B3C3C",
"_	c #FD0000",
":	c #A24040",
"<	c #CE0000",
"[	c #C90202",
"}	c #B71212",
"|	c #FC0000",
"1	c #BE1515",
"2	c #B41A1A",
"3	c #8B4A4A",
"4	c #8E4141",
"     .           +      ",
"    @#$         %&*     ",
"   =#&&$       %&&&*    ",
"  %&&&&&$     -&&&&&*   ",
" ;&&&&&&&$   >&&&&&&&*  ",
",')&&&&&&&$ >&&&&&&&&&* ",
" ,')&&&&&&&&&&&&&&&&&&&+",
"  ,')&&&&&&&&&&&&&&&&&% ",
"   ,')&&&&&&&&&&&&&&&%  ",
"    ,')&&&&&&&&&&&&#!   ",
"     ,~{&&&&&&&&&&#]    ",
"      ^&&&&&&&&&&&.     ",
"     %&&&&&&&&&&&$      ",
"    /&&&&&&&&&&&&&$     ",
"   >&&&&&&&&&&&&&&&$    ",
"  >&&&&&&&&&&&&&&&&&$   ",
" (_&&&&&&&&&&{&&&&&&&$  ",
",,:_&&&&&&&&^~)&&&&&&&$ ",
" ,,:_&&&&&&% ,')&&&&&&#.",
"  ,,:_&&&#<   ,')&&&&#@ ",
"   ,,:_&#[     ,')&&$}  ",
"    ,,:|1       ,')$2   ",
"     ,,3         ,'4    ",
"      ,           ,     "};
