/* XPM */
static char * schedule_xpm[] = {
"24 24 254 2",
"  	c None",
". 	c #4880BF",
"+ 	c #6993C8",
"@ 	c #4586C6",
"# 	c #4B89C7",
"$ 	c #3F81C4",
"% 	c #4887C6",
"& 	c #4987C6",
"* 	c #3E81C4",
"= 	c #6194C8",
"- 	c #528BC4",
"; 	c #508AC4",
"> 	c #808080",
", 	c #5D90C3",
"' 	c #99A9CD",
") 	c #639CD5",
"! 	c #83ACD5",
"~ 	c #83AAD1",
"{ 	c #88AFD5",
"] 	c #88ADD3",
"^ 	c #6C9FD3",
"/ 	c #5092D5",
"( 	c #70A1D3",
"_ 	c #6A9DD2",
": 	c #639BD4",
"< 	c #A1BBD5",
"[ 	c #AAC3E7",
"} 	c #87B3E8",
"| 	c #E5E8EC",
"1 	c #A5C1E7",
"2 	c #C1D5EB",
"3 	c #EFEFEF",
"4 	c #E3E3E4",
"5 	c #E0DFDF",
"6 	c #E7E7E7",
"7 	c #EEEEEE",
"8 	c #DADADA",
"9 	c #8BB6E9",
"0 	c #DCE0E9",
"a 	c #ABC9EC",
"b 	c #90B5E6",
"c 	c #BACCE4",
"d 	c #A0BAD5",
"e 	c #5597E7",
"f 	c #3386E8",
"g 	c #E2E4EA",
"h 	c #5494E4",
"i 	c #A8C5E9",
"j 	c #D7D7D6",
"k 	c #BFBFBF",
"l 	c #BEBDBD",
"m 	c #E0E1E2",
"n 	c #DFDFDE",
"o 	c #C4C5C6",
"p 	c #C9C8C7",
"q 	c #D2D3D5",
"r 	c #3A8AE8",
"s 	c #C5D1E6",
"t 	c #6FA7EA",
"u 	c #3988E7",
"v 	c #9FBCE1",
"w 	c #99B3CD",
"x 	c #E5E5E7",
"y 	c #E1E1E5",
"z 	c #DCE1E6",
"A 	c #9FBBD9",
"B 	c #9BB7D8",
"C 	c #A5C0DC",
"D 	c #A8C2DD",
"E 	c #95B2D5",
"F 	c #CDD8E4",
"G 	c #E1E2E6",
"H 	c #E0E1E5",
"I 	c #C5D3E1",
"J 	c #779FC7",
"K 	c #C7DDF4",
"L 	c #C3DCF4",
"M 	c #ADCFF0",
"N 	c #7BB1E7",
"O 	c #7EB3E8",
"P 	c #6CA7E4",
"Q 	c #69A6E3",
"R 	c #71ABE5",
"S 	c #60A0E1",
"T 	c #6FABE5",
"U 	c #8DBAE9",
"V 	c #73ACE6",
"W 	c #5D9FE1",
"X 	c #85B6E8",
"Y 	c #76AEE6",
"Z 	c #7FB3E8",
"` 	c #7AAFE6",
" .	c #97C1EC",
"..	c #C4DBF4",
"+.	c #ACCFF0",
"@.	c #CBDBEB",
"#.	c #91ABC5",
"$.	c #E4E4E4",
"%.	c #E2E2E2",
"&.	c #DEE2E5",
"*.	c #B6CADE",
"=.	c #ADC0D3",
"-.	c #BFCFDF",
";.	c #A6BACE",
">.	c #B7CBDE",
",.	c #A7BBCF",
"'.	c #ACBED1",
").	c #A7BACE",
"!.	c #8DA0B2",
"~.	c #8094A7",
"{.	c #7D92A5",
"].	c #849BB2",
"^.	c #FBFBFB",
"/.	c #F5F6F6",
"(.	c #FFFFFF",
"_.	c #E8E8E8",
":.	c #E1E2E3",
"<.	c #DEDEDE",
"[.	c #E6E6E5",
"}.	c #F7F8FA",
"|.	c #9AACBD",
"1.	c #7192B3",
"2.	c #6C8EAF",
"3.	c #7492AF",
"4.	c #FDFDFD",
"5.	c #E9E9E9",
"6.	c #D8D7D8",
"7.	c #DFDEDE",
"8.	c #F0F1F1",
"9.	c #F6F6F6",
"0.	c #EAEAEA",
"a.	c #E9E9EA",
"b.	c #D3D3D4",
"c.	c #C8D6E4",
"d.	c #F8F8F8",
"e.	c #EBEBEB",
"f.	c #F0F0F1",
"g.	c #E7E7E6",
"h.	c #F7F8F8",
"i.	c #ECEBEB",
"j.	c #EDEEEF",
"k.	c #EEEFEF",
"l.	c #D0DEEC",
"m.	c #DDDDDD",
"n.	c #D1D1D0",
"o.	c #E0E0E0",
"p.	c #CBCCCD",
"q.	c #F1F1F1",
"r.	c #C4C2C0",
"s.	c #F2F3F5",
"t.	c #FAFAFA",
"u.	c #D0CFCE",
"v.	c #F1F2F3",
"w.	c #C5C4C3",
"x.	c #DBDDDE",
"y.	c #D4D2D1",
"z.	c #D3D6D7",
"A.	c #D2D2D3",
"B.	c #CECECE",
"C.	c #9BB4CE",
"D.	c #F5F5F5",
"E.	c #EDEDEE",
"F.	c #FDFDFE",
"G.	c #F3F3F3",
"H.	c #ECEDED",
"I.	c #F9F9F9",
"J.	c #F3F3F4",
"K.	c #F0F0F0",
"L.	c #A1B9D0",
"M.	c #DBDCDD",
"N.	c #EEEEED",
"O.	c #CDCECF",
"P.	c #F5F4F4",
"Q.	c #D4D4D3",
"R.	c #F1F2F5",
"S.	c #CFCFD0",
"T.	c #EAEAEB",
"U.	c #D0D0D0",
"V.	c #E9EAEB",
"W.	c #DEE1E2",
"X.	c #A1B8D0",
"Y.	c #F3F2F1",
"Z.	c #D7D8DA",
"`.	c #F7F7F7",
" +	c #D8D8D9",
".+	c #DBDBDA",
"++	c #F7F8F9",
"@+	c #D9DADB",
"#+	c #FCFCFC",
"$+	c #FEFEFE",
"%+	c #FCFCFD",
"&+	c #A0B7CF",
"*+	c #EFEFEE",
"=+	c #DCDDDE",
"-+	c #DEDEDD",
";+	c #F8F9FA",
">+	c #DCDCDD",
",+	c #FEFFFF",
"'+	c #FCFDFD",
")+	c #9EB6CD",
"!+	c #F6F7F7",
"~+	c #F4F4F4",
"{+	c #F8F8F7",
"]+	c #98AFC7",
"^+	c #E7E7E8",
"/+	c #E1E3E6",
"(+	c #D7DDE3",
"_+	c #D5DBE1",
":+	c #D6DBE1",
"<+	c #D7DCE2",
"[+	c #DFE2E6",
"}+	c #E5E5E5",
"|+	c #E5E5E6",
"1+	c #E4E4E5",
"2+	c #C0CEDC",
"3+	c #84A7C9",
"4+	c #8DBAD3",
"5+	c #AABBCB",
"6+	c #D3D3D2",
"7+	c #DFDFDF",
"8+	c #E8E8E9",
"9+	c #D8D8D8",
"0+	c #D4D4D5",
"a+	c #DCDCDC",
"b+	c #D2DAE3",
"c+	c #B8B8BC",
"d+	c #B0B2B7",
"e+	c #B3B4BA",
"f+	c #B1B2B8",
"g+	c #B8B9BF",
"h+	c #C6C7CC",
"i+	c #B2B2B8",
"j+	c #D7D8DE",
"k+	c #C1C2C7",
"l+	c #A2B0C3",
"m+	c #85A4C4",
"n+	c #9FB2C5",
"o+	c #A5B6C6",
"p+	c #B9C6D4",
"q+	c #C1CFDE",
"r+	c #B7C6D5",
"s+	c #BFCDDB",
"t+	c #B5C3D1",
"u+	c #BECCDA",
"v+	c #CFDEEC",
"w+	c #B9C9DA",
"x+	c #B8BFCA",
"y+	c #B6BEC9",
"z+	c #B6BDC8",
"A+	c #B4BBC6",
"B+	c #B9C0CC",
"C+	c #C5CDD8",
"D+	c #BFC6D1",
"E+	c #A8BCD4",
"                                                ",
"                                                ",
"  . + @ # $ % & * $ $ $ $ $ $ $ $ $ $ $ $ = - ; ",
"> , ' ) ! ~ { ] ^ / / / / / / / / / / / / ( _ : ",
"> < [ } | 1 2 3 3 4 5 6 7 3 6 8 5 4 3 9 0 a b c ",
"> d e f g h i 3 3 j k l m 3 n o p q 3 r s t u v ",
"> w x y z A B C C C C C C C C C D C C E F G H I ",
"> J K L M N O P Q R S T U V W X Y W Z `  ...+.@.",
"> #.$.%.&.*.=.-.*.;.*.>.,.*.*.'.*.*.).*.!.~.{.].",
"> w ^./.(.(._.(.(.%.(.(.:.(.(.<.(.(.[.}.|.1.2.3.",
"> w 4.5.(.(.6.(.(.8 (.4.7.8.(.$.9.(.0.a.9.<.b.c.",
"> w (.d.(.(.e.(.(.f.(.4.g.h.(._.9.(.i.j.(.3 k.l.",
"> w m.n.(.o.p.(.q.r.s.t.u.v.(.w.x.(.y.z.(.A.B.l.",
"> C.D.D.(.d.k.(.^.E.F.4.G.t.(.H.I.(.G.D.(.J.K.l.",
"> L.g.M.(.N.O.(.P.Q.R.^.S.T.(.U.V.(.y.W.(.<.3 l.",
"> X.Y.Z.(.`. +(.I..+++4.@+(.(.#+(.(.#+$+(.#+%+l.",
"> &+0.o.(.*+=+(.t.-+;+4.>+#+(.^.(.(.t.,+(.4.'+l.",
"> )+$+9.(.(.!+(.(.D.(.(.I.(.(.~+(.(.{+'+(.t.9.l.",
"> ]+^+/+(+(+_+(+(+:+(+(+<+[+6 }+6 6 |+6 6 1+1+2+",
"> 3+4+5+6+7+A.8+9+0+a+(.(.b+c+d+e+f+g+h+i+j+k+l+",
"> m+n+o+p+q+r+s+t+r+u+v+v+w+x+y+z+y+A+B+x+C+D+E+",
"> > > > > > > > > > > > > > > > > > > > > > >   ",
"                                                ",
"                                                "};
