/* XPM */
static char * start_xpm[] = {
"24 24 140 2",
"  	c None",
". 	c #AEAECD",
"+ 	c #BEBEF2",
"@ 	c #808080",
"# 	c #9A9AB5",
"$ 	c #BCBCFF",
"% 	c #ACACFF",
"& 	c #8C8CE6",
"* 	c #9595B5",
"= 	c #B1B1FF",
"- 	c #A0A0FF",
"; 	c #8E8EFF",
"> 	c #7B7BF9",
", 	c #5E5EDB",
"' 	c #9090B5",
") 	c #A7A7FF",
"! 	c #9595FF",
"~ 	c #8383FF",
"{ 	c #7171FF",
"] 	c #6161FF",
"^ 	c #4D4DF1",
"/ 	c #8C8CB5",
"( 	c #9F9FFF",
"_ 	c #8B8BFF",
": 	c #7979FF",
"< 	c #6767FF",
"[ 	c #5555FF",
"} 	c #4444FF",
"| 	c #3535FE",
"1 	c #2727E5",
"2 	c #8989B5",
"3 	c #9898FF",
"4 	c #8484FF",
"5 	c #5E5EFF",
"6 	c #4B4BFF",
"7 	c #3939FF",
"8 	c #2626FF",
"9 	c #1C1CFF",
"0 	c #2828F8",
"a 	c #2F2FD9",
"b 	c #8787B5",
"c 	c #9393FF",
"d 	c #7F7FFF",
"e 	c #6B6BFF",
"f 	c #5858FF",
"g 	c #3030FF",
"h 	c #0D0DFF",
"i 	c #2020FF",
"j 	c #3434FF",
"k 	c #4242F0",
"l 	c #8585B5",
"m 	c #8F8FFF",
"n 	c #7B7BFF",
"o 	c #5353FF",
"p 	c #3F3FFF",
"q 	c #2B2BFF",
"r 	c #1717FF",
"s 	c #0808FF",
"t 	c #1B1BFF",
"u 	c #2F2FFF",
"v 	c #4343FF",
"w 	c #5656FD",
"x 	c #5D5DE3",
"y 	c #8484B5",
"z 	c #8D8DFF",
"A 	c #6565FF",
"B 	c #5151FF",
"C 	c #3D3DFF",
"D 	c #2929FF",
"E 	c #1414FF",
"F 	c #0606FF",
"G 	c #1818FF",
"H 	c #2D2DFF",
"I 	c #4141FF",
"J 	c #6868FF",
"K 	c #7878F7",
"L 	c #7878D7",
"M 	c #8C8CFF",
"N 	c #3C3CFF",
"O 	c #2828FF",
"P 	c #2C2CFF",
"Q 	c #4040FF",
"R 	c #5454FF",
"S 	c #7D7DFF",
"T 	c #8585EA",
"U 	c #2A2AFF",
"V 	c #1616FF",
"W 	c #0707FF",
"X 	c #1A1AFF",
"Y 	c #2E2EFF",
"Z 	c #4242FF",
"` 	c #5656FF",
" .	c #6666F0",
"..	c #7070B4",
"+.	c #8686B5",
"@.	c #9292FF",
"#.	c #7E7EFF",
"$.	c #6A6AFF",
"%.	c #5757FF",
"&.	c #0C0CFF",
"*.	c #1E1EFF",
"=.	c #3232FF",
"-.	c #4646FD",
";.	c #5B5BC7",
">.	c #8888B5",
",.	c #9696FF",
"'.	c #7070FF",
").	c #5D5DFF",
"!.	c #4A4AFF",
"~.	c #3636FF",
"{.	c #2424FF",
"].	c #1919FF",
"^.	c #2727FF",
"/.	c #3F3FDD",
"(.	c #5D5D9C",
"_.	c #8B8BB5",
":.	c #9C9CFF",
"<.	c #8A8AFF",
"[.	c #7777FF",
"}.	c #2D2DF0",
"|.	c #4B4BB3",
"1.	c #8F8FB5",
"2.	c #A4A4FF",
"3.	c #8080FF",
"4.	c #6F6FFF",
"5.	c #4E4EFD",
"6.	c #4C4CC8",
"7.	c #9393B5",
"8.	c #ADADFF",
"9.	c #6868DE",
"0.	c #65659D",
"a.	c #9898B5",
"b.	c #B8B8FF",
"c.	c #9191F1",
"d.	c #7777B3",
"e.	c #9E9EB5",
"f.	c #C2C2FD",
"g.	c #9696C7",
"h.	c #8F8F9B",
"i.	c #8C8C9C",
"                                                ",
"                                                ",
"            . +                                 ",
"          @ # $ % &                             ",
"          @ * = - ; > ,                         ",
"          @ ' ) ! ~ { ] ^                       ",
"          @ / ( _ : < [ } | 1                   ",
"          @ 2 3 4 { 5 6 7 8 9 0 a               ",
"          @ b c d e f } g 9 h i j k             ",
"          @ l m n < o p q r s t u v w x         ",
"          @ y z : A B C D E F G H I [ J K L     ",
"          @ y M : A B N O E F G P Q R J S T     ",
"          @ l m n < o p U V W X Y Z `  ...      ",
"          @ +.@.#.$.%.v u X &.*.=.-.;.          ",
"          @ >.,.~ '.).!.~.{.].^./.(.            ",
"          @ _.:.<.[.A o I =.}.|.                ",
"          @ 1.2.@.3.4.5 5.6.                    ",
"          @ 7.8.:._ n 9.0.                      ",
"          @ a.b.) c.d.                          ",
"          @ e.f.g.                              ",
"          @ h.i.                                ",
"                                                ",
"                                                ",
"                                                "};
