/* XPM */
static char *startall[]={
"24 24 140 2",
"Qt c None",
"#e c #0606ff",
"#v c #0707ff",
".3 c #0808ff",
"#H c #0c0cff",
".S c #0d0dff",
"#d c #1414ff",
"#u c #1616ff",
".2 c #1717ff",
"#f c #1818ff",
"#T c #1919ff",
"#w c #1a1aff",
".4 c #1b1bff",
".J c #1c1cff",
"#I c #1e1eff",
".T c #2020ff",
"#S c #2424ff",
".I c #2626ff",
".B c #2727e5",
"#U c #2727ff",
".K c #2828f8",
"#n c #2828ff",
"#c c #2929ff",
"#t c #2a2aff",
".1 c #2b2bff",
"#o c #2c2cff",
"#1 c #2d2df0",
"#g c #2d2dff",
"#x c #2e2eff",
".L c #2f2fd9",
".5 c #2f2fff",
".R c #3030ff",
"#J c #3232ff",
".U c #3434ff",
".A c #3535fe",
"#R c #3636ff",
".H c #3939ff",
"#m c #3c3cff",
"#b c #3d3dff",
"#V c #3f3fdd",
".0 c #3f3fff",
"#p c #4040ff",
"#h c #4141ff",
".V c #4242f0",
"#y c #4242ff",
".6 c #4343ff",
".z c #4444ff",
"#K c #4646fd",
"#Q c #4a4aff",
"#2 c #4b4bb3",
".G c #4b4bff",
"#8 c #4c4cc8",
".s c #4d4df1",
"#7 c #4e4efd",
"#a c #5151ff",
".Z c #5353ff",
"#q c #5454ff",
".y c #5555ff",
".7 c #5656fd",
"#z c #5656ff",
"#G c #5757ff",
".Q c #5858ff",
"#L c #5b5bc7",
"#W c #5d5d9c",
".8 c #5d5de3",
"#P c #5d5dff",
".l c #5e5edb",
".F c #5e5eff",
".r c #6161ff",
"aa c #65659d",
"## c #6565ff",
"#A c #6666f0",
".x c #6767ff",
"a# c #6868de",
"#i c #6868ff",
"#F c #6a6aff",
".P c #6b6bff",
"#6 c #6f6fff",
"#B c #7070b4",
"#O c #7070ff",
".q c #7171ff",
"ae c #7777b3",
"#0 c #7777ff",
"#k c #7878d7",
"#j c #7878f7",
".w c #7979ff",
".k c #7b7bf9",
".Y c #7b7bff",
"#r c #7d7dff",
"#E c #7e7eff",
".O c #7f7fff",
".b c #808080",
"#5 c #8080ff",
".p c #8383ff",
".9 c #8484b5",
".E c #8484ff",
".W c #8585b5",
"#s c #8585ea",
"#C c #8686b5",
".M c #8787b5",
"#M c #8888b5",
".C c #8989b5",
"#Z c #8a8aff",
"#X c #8b8bb5",
".v c #8b8bff",
"aj c #8c8c9c",
".t c #8c8cb5",
".f c #8c8ce6",
"#l c #8c8cff",
"#. c #8d8dff",
".j c #8e8eff",
"ai c #8f8f9b",
"#3 c #8f8fb5",
".X c #8f8fff",
".m c #9090b5",
"ad c #9191f1",
"#D c #9292ff",
"#9 c #9393b5",
".N c #9393ff",
".g c #9595b5",
".o c #9595ff",
"ah c #9696c7",
"#N c #9696ff",
"ab c #9898b5",
".D c #9898ff",
".c c #9a9ab5",
"#Y c #9c9cff",
"af c #9e9eb5",
".u c #9f9fff",
".i c #a0a0ff",
"#4 c #a4a4ff",
".n c #a7a7ff",
".e c #acacff",
"a. c #adadff",
".# c #aeaecd",
".h c #b1b1ff",
"ac c #b8b8ff",
".d c #bcbcff",
".a c #bebef2",
"ag c #c2c2fd",
"QtQtQtQtQtQtQtQtQtQtQtQtQtQtQtQtQtQtQtQtQtQtQtQt",
"QtQtQtQtQtQtQtQtQtQtQtQtQtQtQtQtQtQtQtQtQtQtQtQt",
"QtQt.#.aQtQtQtQt.#.aQtQtQtQtQtQtQtQtQtQtQtQtQtQt",
"Qt.b.c.d.e.fQt.b.c.d.e.fQtQtQtQtQtQtQtQtQtQtQtQt",
"Qt.b.g.h.i.j.k.b.g.h.i.j.k.lQtQtQtQtQtQtQtQtQtQt",
"Qt.b.m.n.o.p.q.b.m.n.o.p.q.r.sQtQtQtQtQtQtQtQtQt",
"Qt.b.t.u.v.w.x.b.t.u.v.w.x.y.z.A.BQtQtQtQtQtQtQt",
"Qt.b.C.D.E.q.F.b.C.D.E.q.F.G.H.I.J.K.LQtQtQtQtQt",
"Qt.b.M.N.O.P.Q.b.M.N.O.P.Q.z.R.J.S.T.U.VQtQtQtQt",
"Qt.b.W.X.Y.x.Z.b.W.X.Y.x.Z.0.1.2.3.4.5.6.7.8QtQt",
"Qt.b.9#..w###a.b.9#..w###a#b#c#d#e#f#g#h.y#i#j#k",
"Qt.b.9#l.w###a.b.9#l.w###a#m#n#d#e#f#o#p#q#i#r#s",
"Qt.b.W.X.Y.x.Z.b.W.X.Y.x.Z.0#t#u#v#w#x#y#z#A#BQt",
"Qt.b#C#D#E#F#G.b#C#D#E#F#G.6.5#w#H#I#J#K#LQtQtQt",
"Qt.b#M#N.p#O#P.b#M#N.p#O#P#Q#R#S#T#U#V#WQtQtQtQt",
"Qt.b#X#Y#Z#0##.b#X#Y#Z#0##.Z#h#J#1#2QtQtQtQtQtQt",
"Qt.b#3#4#D#5#6.b#3#4#D#5#6.F#7#8QtQtQtQtQtQtQtQt",
"Qt.b#9a.#Y.v.Y.b#9a.#Y.v.Ya#aaQtQtQtQtQtQtQtQtQt",
"Qt.babac.nadae.babac.nadaeQtQtQtQtQtQtQtQtQtQtQt",
"Qt.bafagahQtQt.bafagahQtQtQtQtQtQtQtQtQtQtQtQtQt",
"Qt.baiajQtQtQt.baiajQtQtQtQtQtQtQtQtQtQtQtQtQtQt",
"QtQtQtQtQtQtQtQtQtQtQtQtQtQtQtQtQtQtQtQtQtQtQtQt",
"QtQtQtQtQtQtQtQtQtQtQtQtQtQtQtQtQtQtQtQtQtQtQtQt",
"QtQtQtQtQtQtQtQtQtQtQtQtQtQtQtQtQtQtQtQtQtQtQtQt"};
