/* XPM */
static char *stopall[]={
"24 24 105 2",
"Qt c None",
".P c #1414ff",
".L c #1515ff",
"#w c #1616ff",
".B c #1717ff",
"#D c #1818ff",
".u c #1919ff",
"#e c #1a1aff",
"#F c #1b1bff",
".m c #1e1eff",
"#l c #1f1fff",
".I c #2121d9",
".g c #2222ff",
".b c #2323ff",
"#r c #2424ff",
".T c #4c4cff",
".Q c #4e4eff",
".0 c #4f4fff",
".1 c #5050ff",
".M c #5151ff",
".5 c #5252ff",
".Y c #5353ff",
".C c #5454ff",
".F c #5555ff",
"#C c #5656ff",
".G c #5757ff",
".A c #5858ff",
"## c #5959ff",
".v c #5a5aff",
"#f c #5b5bff",
".y c #5c5cff",
".t c #5d5dff",
"#d c #5e5eff",
".n c #6262ff",
"#m c #6363ff",
"#z c #646490",
".q c #6464ff",
"#H c #6565ff",
".H c #6666d9",
".l c #6666ff",
".J c #6767d9",
"#k c #6767ff",
".c c #6c6cff",
".f c #6d6dff",
".h c #6e6eff",
"#s c #6f6fff",
"#L c #71717d",
".a c #7171ff",
"#M c #73737c",
"#A c #737392",
"#q c #7373ff",
"#K c #76767d",
"#y c #767690",
".V c #7979bf",
".4 c #7979c3",
".S c #7a7abf",
"#i c #7a7ac3",
".2 c #7b7bbf",
".O c #7c7cbf",
".Z c #7c7cc3",
".W c #7d7de7",
"#J c #7e7e7f",
"#x c #7e7e82",
".U c #7e7ee7",
".K c #7f7fbf",
".X c #7f7fc3",
".3 c #7f7fe7",
".j c #808080",
".7 c #8080bf",
"#v c #8080c3",
".R c #8282e7",
".z c #8383bf",
".E c #8383c3",
".6 c #8383e7",
"#. c #8484bf",
"#B c #8585c3",
".N c #8585e7",
".8 c #8686e7",
".9 c #8787e7",
".s c #8989bf",
".x c #8989c3",
"#c c #8a8abf",
".D c #8a8ae7",
"#E c #8b8bc3",
"#a c #8b8be7",
"#b c #8c8ce7",
".k c #9191bf",
".p c #9191c3",
".w c #9191e7",
"#j c #9292bf",
"#g c #9292e7",
"#I c #9393b3",
"#h c #9393e7",
"#G c #9494c3",
"#p c #9999bb",
".r c #9999e7",
".o c #9a9ae7",
"#n c #9b9be7",
"#o c #9c9ce7",
".e c #9d9dcb",
".# c #9f9fcc",
".d c #a2a2e5",
"#u c #a3a3e3",
".i c #a4a4e6",
"#t c #a5a5e7",
"QtQtQtQtQtQtQtQtQtQtQtQtQtQtQtQtQtQtQtQtQtQtQtQt",
"QtQtQt.#.a.b.c.dQtQt.e.f.g.h.iQtQtQtQtQtQtQtQtQt",
"QtQt.j.k.l.m.n.oQt.j.p.n.m.q.rQtQtQtQtQtQtQtQtQt",
"QtQt.j.s.t.u.v.wQt.j.x.v.u.y.wQtQtQtQtQtQtQtQtQt",
"QtQt.j.z.A.B.C.DQt.j.E.F.B.G.DQtQt.H.I.JQtQtQtQt",
"QtQt.j.K.C.L.M.NQt.#.a.b.c.d.NQt.e.f.g.h.iQtQtQt",
"QtQt.j.O.M.P.Q.R.j.k.l.m.n.o.R.j.p.n.m.q.rQtQtQt",
"QtQt.j.S.Q.P.T.U.j.s.t.u.v.w.U.j.x.v.u.y.wQtQtQt",
"QtQt.j.V.Q.P.T.W.j.z.A.B.C.D.U.j.E.F.B.G.DQtQtQt",
"QtQt.j.V.Q.P.T.W.j.K.C.L.M.N.U.j.X.M.L.Y.NQtQtQt",
"QtQt.j.V.Q.P.T.W.j.O.M.P.Q.R.U.j.Z.0.P.1.RQtQtQt",
"QtQt.j.2.Q.P.T.3.j.S.Q.P.T.U.3.j.4.T.P.Q.UQtQtQt",
"QtQt.j.O.5.P.0.R.j.V.Q.P.T.W.6.j.4.T.P.Q.UQtQtQt",
"QtQt.j.7.C.L.M.8.j.V.Q.P.T.W.9.j.4.T.P.Q.UQtQtQt",
"QtQt.j#.##.B.F#a.j.V.Q.P.T.W#b.j.4.T.P.Q.UQtQtQt",
"QtQt.j#c#d#e#f#g.j.2.Q.P.T.3#h.j#i.T.P.Q.3QtQtQt",
"QtQt.j#j#k#l#m#n.j.O.5.P.0.R#o.j.Z.1.P.5.6QtQtQt",
"QtQt.j#p#q#r#s#t.j.7.C.L.M.8#u.j#v.5#w.C.9QtQtQt",
"QtQtQt#x#y#z#AQt.j#.##.B.F#aQt.j#B#C#D.A#bQtQtQt",
"QtQtQtQtQtQtQtQt.j#c#d#e#f#gQt.j#E.y#F#d#hQtQtQt",
"QtQtQtQtQtQtQtQt.j#j#k#l#m#nQt.j#G#H#l#k#oQtQtQt",
"QtQtQtQtQtQtQtQt.j#p#q#r#s#tQt.j#I.a#r#q#uQtQtQt",
"QtQtQtQtQtQtQtQtQt#x#y#z#AQtQtQt#J#K#L#MQtQtQtQt",
"QtQtQtQtQtQtQtQtQtQtQtQtQtQtQtQtQtQtQtQtQtQtQtQt"};
