/* XPM */
static char * stop_xpm[] = {
"24 24 105 2",
"  	c None",
". 	c #6666D9",
"+ 	c #2121D9",
"@ 	c #6767D9",
"# 	c #9F9FCC",
"$ 	c #7171FF",
"% 	c #2323FF",
"& 	c #6C6CFF",
"* 	c #A2A2E5",
"= 	c #9D9DCB",
"- 	c #6D6DFF",
"; 	c #2222FF",
"> 	c #6E6EFF",
", 	c #A4A4E6",
"' 	c #808080",
") 	c #9191BF",
"! 	c #6666FF",
"~ 	c #1E1EFF",
"{ 	c #6262FF",
"] 	c #9A9AE7",
"^ 	c #9191C3",
"/ 	c #6464FF",
"( 	c #9999E7",
"_ 	c #8989BF",
": 	c #5D5DFF",
"< 	c #1919FF",
"[ 	c #5A5AFF",
"} 	c #9191E7",
"| 	c #8989C3",
"1 	c #5C5CFF",
"2 	c #8383BF",
"3 	c #5858FF",
"4 	c #1717FF",
"5 	c #5454FF",
"6 	c #8A8AE7",
"7 	c #8383C3",
"8 	c #5555FF",
"9 	c #5757FF",
"0 	c #7F7FBF",
"a 	c #1515FF",
"b 	c #5151FF",
"c 	c #8585E7",
"d 	c #7F7FC3",
"e 	c #5353FF",
"f 	c #7C7CBF",
"g 	c #1414FF",
"h 	c #4E4EFF",
"i 	c #8282E7",
"j 	c #7C7CC3",
"k 	c #4F4FFF",
"l 	c #5050FF",
"m 	c #7A7ABF",
"n 	c #4C4CFF",
"o 	c #7E7EE7",
"p 	c #7979C3",
"q 	c #7979BF",
"r 	c #7D7DE7",
"s 	c #7B7BBF",
"t 	c #7F7FE7",
"u 	c #7A7AC3",
"v 	c #5252FF",
"w 	c #8383E7",
"x 	c #8080BF",
"y 	c #8686E7",
"z 	c #8080C3",
"A 	c #1616FF",
"B 	c #8787E7",
"C 	c #8484BF",
"D 	c #5959FF",
"E 	c #8B8BE7",
"F 	c #8585C3",
"G 	c #5656FF",
"H 	c #1818FF",
"I 	c #8C8CE7",
"J 	c #8A8ABF",
"K 	c #5E5EFF",
"L 	c #1A1AFF",
"M 	c #5B5BFF",
"N 	c #9292E7",
"O 	c #8B8BC3",
"P 	c #1B1BFF",
"Q 	c #9393E7",
"R 	c #9292BF",
"S 	c #6767FF",
"T 	c #1F1FFF",
"U 	c #6363FF",
"V 	c #9B9BE7",
"W 	c #9494C3",
"X 	c #6565FF",
"Y 	c #9C9CE7",
"Z 	c #9999BB",
"` 	c #7373FF",
" .	c #2424FF",
"..	c #6F6FFF",
"+.	c #A5A5E7",
"@.	c #9393B3",
"#.	c #A3A3E3",
"$.	c #7E7E82",
"%.	c #767690",
"&.	c #646490",
"*.	c #737392",
"=.	c #7E7E7F",
"-.	c #76767D",
";.	c #71717D",
">.	c #73737C",
"                                                ",
"                                                ",
"                            . + @               ",
"            # $ % & *     = - ; > ,             ",
"          ' ) ! ~ { ]   ' ^ { ~ / (             ",
"          ' _ : < [ }   ' | [ < 1 }             ",
"          ' 2 3 4 5 6   ' 7 8 4 9 6             ",
"          ' 0 5 a b c   ' d b a e c             ",
"          ' f b g h i   ' j k g l i             ",
"          ' m h g n o   ' p n g h o             ",
"          ' q h g n r   ' p n g h o             ",
"          ' q h g n r   ' p n g h o             ",
"          ' q h g n r   ' p n g h o             ",
"          ' s h g n t   ' u n g h t             ",
"          ' f v g k i   ' j l g v w             ",
"          ' x 5 a b y   ' z v A 5 B             ",
"          ' C D 4 8 E   ' F G H 3 I             ",
"          ' J K L M N   ' O 1 P K Q             ",
"          ' R S T U V   ' W X T S Y             ",
"          ' Z `  ...+.  ' @.$  .` #.            ",
"            $.%.&.*.      =.-.;.>.              ",
"                                                ",
"                                                ",
"                                                "};
