/* XPM */
static char * up_xpm[] = {
"24 24 50 1",
" 	c None",
".	c #000055",
"+	c #00007D",
"@	c #00006E",
"#	c #0F0F75",
"$	c #000080",
"%	c #000061",
"&	c #29296D",
"*	c #00007C",
"=	c #49496D",
"-	c #000074",
";	c #676771",
">	c #080876",
",	c #000066",
"'	c #21216F",
")	c #41416C",
"!	c #00007F",
"~	c #000077",
"{	c #5F5F6F",
"]	c #040479",
"^	c #00006C",
"/	c #191972",
"(	c #00005D",
"_	c #39396D",
":	c #00007B",
"<	c #595970",
"[	c #01017A",
"}	c #000072",
"|	c #737376",
"1	c #101072",
"2	c #000064",
"3	c #2D2D6D",
"4	c #00007E",
"5	c #52526E",
"6	c #000076",
"7	c #737373",
"8	c #161663",
"9	c #0D0D6D",
"0	c #0A0A6E",
"a	c #05056C",
"b	c #00006B",
"c	c #00004E",
"d	c #808080",
"e	c #5E5E6D",
"f	c #000070",
"g	c #7D7D7D",
"h	c #7A7A7A",
"i	c #727276",
"j	c #4D4D6D",
"k	c #25255F",
"                        ",
"            .           ",
"            +@          ",
"           #$$%         ",
"          &$$$*         ",
"         =+$$$$-        ",
"        ;>$$$$$$,       ",
"        '$$$$$$$$       ",
"       )!$$$$$$$$~      ",
"      {]$$$$$$$$$$^     ",
"      /$$$$$$$$$$$$(    ",
"     _$$$$$$$$$$$$$:    ",
"    <[$$$$$$$$$$$$$$}   ",
"   |1$$$$$$$$$$$$$$$$2  ",
"   3$$$$$$$$$$$$$$$$$4  ",
"  5+$$$$$$$$$$$$$$$$$$6 ",
" 789990$$$$$$$$$$$*99abc",
" ddddde$$$$$$$$$$$fgdd  ",
" ddddde$$$$$$$$$$$fhdd  ",
"     de$$$$$$$$$$$f     ",
"     dijjjjjjjjjjk      ",
"     dddddddddddd       ",
"                        ",
"                        "};
