/* XPM */
static char * error_xpm[] = {
"16 16 7 1",
" 	c none",
".	c Red",
"X	c #996666",
"o	c #cc0000",
"O	c #ffcc33",
"+	c #990000",
"@	c #ff3333",
"                ",
"              . ",
" XoX         o  ",
" oO.+      o+   ",
"  o..+    o+    ",
"    o.+  o+     ",
"     o.+o+      ",
"      o.+       ",
"     o.+.+      ",
"    o.+  .+     ",
"   o.+    .+    ",
"  @.o      .    ",
" @O.+       .   ",
" @.+            ",
"  +          .  ",
"                "};
