/* XPM */
static char * exit_xpm[] = {
"16 16 38 1",
" 	c None",
".	c #E2E293",
"+	c #F0F0B2",
"@	c #F0F09B",
"#	c #CDC88C",
"$	c #8F7F89",
"%	c #34177D",
"&	c #808080",
"*	c #EEEEB2",
"=	c #FFFFFF",
"-	c #EEECB8",
";	c #A0919C",
">	c #4D2D95",
",	c #2C0698",
"'	c #25008C",
")	c #DBD5C2",
"!	c #9A8992",
"~	c #381494",
"{	c #280099",
"]	c #5C418F",
"^	c #2C0598",
"/	c #401F90",
"(	c #260091",
"_	c #20007B",
":	c #401F8F",
"<	c #1F0078",
"[	c #260092",
"}	c #C8C890",
"|	c #D4D4AD",
"1	c #3B1A8F",
"2	c #240089",
"3	c #2A078E",
"4	c #270096",
"5	c #2A078A",
"6	c #25008E",
"7	c #280098",
"8	c #270093",
"9	c #21007F",
"    .++++@#$%   ",
"   &*===-;>,'   ",
"   &*=)!~{{{'   ",
"   &*=]^{{{{'   ",
"   &*=/{{{{{'   ",
"   &*=/{{{{{'   ",
"   &*=/{{{{{'   ",
"   &*=/{{{{{'   ",
"   &*=/(_({{'   ",
"   &*=:<<[{{'   ",
"   &*=/{{{{{'   ",
"   &}|1{{{{{2   ",
"    &&3{{{45    ",
"      6{76      ",
"      68        ",
"      9         "};
