/* XPM */
static char * graph_xpm[] = {
"16 16 49 1",
" 	c None",
".	c #005B00",
"+	c #000000",
"@	c #1C0000",
"#	c #3E0000",
"$	c #4F0000",
"%	c #E20000",
"&	c #F40000",
"*	c #980000",
"=	c #C60000",
"-	c #D30000",
";	c #120000",
">	c #710000",
",	c #AF0000",
"'	c #060000",
")	c #CD0000",
"!	c #3D0000",
"~	c #175300",
"{	c #F90200",
"]	c #224F00",
"^	c #EE0600",
"/	c #170000",
"(	c #F90000",
"_	c #220000",
":	c #EE0000",
"<	c #0F0000",
"[	c #E50000",
"}	c #BB0000",
"|	c #550000",
"1	c #7B0000",
"2	c #B60000",
"3	c #003300",
"4	c #BB0E00",
"5	c #552200",
"6	c #7D1A00",
"7	c #931600",
"8	c #002800",
"9	c #8F0B00",
"0	c #811A00",
"a	c #7D1400",
"b	c #931100",
"c	c #600000",
"d	c #ED0000",
"e	c #C20000",
"f	c #6D0000",
"g	c #4A0000",
"h	c #8E0000",
"i	c #FF0000",
"j	c #390000",
"................",
"++++++++++++++++",
"++++++++++++++++",
"++++++++++++++++",
"................",
"@+++++++++++++#$",
"%&&&*+++++++++=-",
";@@>,++++++++')!",
"...~{........]^.",
"+++/(++++++++_:+",
"+++<[@+++++++_:+",
"++++}|+++++++12+",
"3333453333333673",
"8888908888888ab8",
"++++cd=======ef+",
"++++@ggggggghij+"};
