/* XPM */
static char *new_xpm[]={
"16 16 11 1",
". c None",
"c c #000080",
"b c #4c4c4c",
"a c #696969",
"# c #979797",
"i c #b4b4b4",
"g c #d1d1d1",
"h c #dddddd",
"f c #e2e2e2",
"e c #e8e8e8",
"d c #f9f9f9",
"..#aaaaaaabbbb..",
"..bcccccccccca..",
"..bcccccccccca..",
"..bcccccccccca..",
"..bdeeeeeeffga..",
"..bdeeeeefffga..",
"..bdeeeeffffga..",
"..bdeeeeffffga..",
"..bdeeefffffga..",
"..bdeeffffffga..",
"..bdeefffffhga..",
"..bdefffffhhga..",
"..bdfffffhhhga..",
"..bdffffhhhhga..",
"..bfggggggggia..",
"..baaaaaaaaaab.."};
