/* XPM */
static char * ok_xpm[] = {
"16 16 2 1",
" 	c none",
".	c #008000",
"                ",
"               .",
"              . ",
"             .. ",
"            ..  ",
"           ..   ",
"          ...   ",
"         ...    ",
"        ...     ",
"..     ...      ",
"...   ...       ",
" ... ...        ",
"  ......        ",
"   ....         ",
"    ..          ",
"                "};
