/* XPM */
static char * options_xpm[] = {
"16 16 9 1",
" 	c none",
".	c #808080",
"X	c Gray26",
"o	c #808000",
"O	c #cccc33",
"+	c #003399",
"@	c #ffcc99",
"#	c #ffff99",
"$	c #161616",
"        .       ",
"       . X      ",
"   ooo.   X     ",
"  oOO.     X    ",
"  oO.   +   Xoo ",
"  o.   + +   Xo ",
"oooooooooooo  X ",
"o         @Oo  X",
"o #######@#@o $ ",
" o###@##@#@@Oo$ ",
" o#####@#@#@@o$ ",
" o#@##@#@#@#@o$ ",
"  o@#@#@#@#@@o$ ",
"  oooooooooooo$ ",
"   $$$$$$$$$$$  ",
"                "};
