/* XPM */
static char *dummy[]={
"16 16 27 1",
". c None",
"r c #717171",
"m c #7c7c7c",
"a c #804000",
"# c #808080",
"s c #939393",
"b c #949494",
"n c #9c9c9c",
"u c #9f9f9f",
"q c #a4a4a4",
"x c #a9a9a9",
"j c #aaaaaa",
"l c #ababab",
"v c #b6b6b6",
"p c #b8b8b8",
"g c #bababa",
"y c #bdbdbd",
"k c #bebebe",
"t c #c2c2c2",
"w c #c8c8c8",
"i c #c9c9c9",
"h c #cbcbcb",
"o c #d2d2d2",
"f c #d3d3d3",
"c c #e8e8e8",
"e c #f5f5f5",
"d c #ffffff",
".......#........",
"..aaaa###aaaa...",
"..aaa#####aaa...",
"..aaaaaaaaaaa...",
"..aaabcdddddd..e",
"..aaabcdddddddde",
"..aaabcdddddddde",
"..aaabcfgggggghe",
"..aaabcijjjjjjke",
"..aaabclmmmmmmne",
"..aaabcoppppppie",
"..aaabcoppppppie",
"..aaabcqrrrrrrse",
"..aaabctuuuuuuve",
"..aaabcwxxxxxxye",
"...aabcdddddddde"};
