/* XPM */
static char * progress_xpm[] = {
"16 16 15 1",
" 	c None",
".	c #FFFFFF",
"+	c #20206C",
"@	c #20208F",
"#	c #484897",
"$	c #ADADAD",
"%	c #818181",
"&	c #00008A",
"*	c #0000C8",
"=	c #4848D7",
"-	c #B0B0B0",
";	c #0F0F64",
">	c #0F0F8B",
",	c #3B3B94",
"'	c #7C7C7C",
"                ",
"                ",
"                ",
"                ",
"                ",
"+@@@@@@@@@#$$$$%",
"&*********=....-",
"&*********=....-",
"&*********=....-",
";>>>>>>>>>,$$$$'",
"                ",
"                ",
"                ",
"                ",
"                ",
"                "};
