/* XPM */
static char * properties_xpm[] = {
"16 16 39 1",
" 	c None",
".	c #398239",
"+	c #039703",
"@	c #00A000",
"#	c #009A00",
"$	c #758875",
"%	c #65B365",
"&	c #68C168",
"*	c #64BA64",
"=	c #949494",
"-	c #E8E8E8",
";	c #FFFFFF",
">	c #F5F5F5",
",	c #D3D3D3",
"'	c #BABABA",
")	c #CBCBCB",
"!	c #C9C9C9",
"~	c #AAAAAA",
"{	c #BEBEBE",
"]	c #ABABAB",
"^	c #7C7C7C",
"/	c #9C9C9C",
"(	c #D2D2D2",
"_	c #B8B8B8",
":	c #A4A4A4",
"<	c #717171",
"[	c #939393",
"}	c #C2C2C2",
"|	c #9F9F9F",
"1	c #B6B6B6",
"2	c #C8C8C8",
"3	c #A9A9A9",
"4	c #BDBDBD",
"5	c #909090",
"6	c #D5D5D5",
"7	c #E2E2E2",
"8	c #838383",
"9	c #8F8F8F",
"0	c #9A9A9A",
"  .+@@@@@@@@#   ",
"  $%&&&&&&&&*   ",
"  =-;;;;;;;;>   ",
"  =-;;;;;;;;>   ",
"  =-;;;;;;;;>   ",
"  =-,'''''')>   ",
"  =-!~~~~~~{>   ",
"  =-]^^^^^^/>   ",
"  =-(______!>   ",
"  =-(______!>   ",
"  =-:<<<<<<[>   ",
"  =-}||||||1>   ",
"  =-23333334>   ",
"  =-;;;;;;;;>   ",
"  56--------7   ",
"  89[[[[[[[[0   "};
