/* XPM */
static char * queue_xpm[] = {
"16 16 122 2",
"  	c None",
". 	c #009900",
"+ 	c #008000",
"@ 	c #4283C5",
"# 	c #3F81C4",
"$ 	c #5C91C7",
"% 	c #81ADD9",
"& 	c #82ADDA",
"* 	c #85B1DD",
"= 	c #83AFDC",
"- 	c #7FABD7",
"; 	c #7AABDD",
"> 	c #76A7DC",
", 	c #7FABDA",
"' 	c #CBCBCB",
") 	c #E8E9E9",
"! 	c #E6E6E6",
"~ 	c #CDCDCD",
"{ 	c #D5D5D6",
"] 	c #BCD2ED",
"^ 	c #A5C2E7",
"/ 	c #74A9E9",
"( 	c #91B8DF",
"_ 	c #9ABCE0",
": 	c #8FB6DE",
"< 	c #99BCE0",
"[ 	c #90B7DE",
"} 	c #94B8DE",
"| 	c #ABC6E3",
"1 	c #D4DEEA",
"2 	c #96B7D9",
"3 	c #9DBFE0",
"4 	c #9FBCDB",
"5 	c #9BBDE0",
"6 	c #A0BDDB",
"7 	c #9CBBDA",
"8 	c #96B2CE",
"9 	c #93AAC0",
"0 	c #FFFFFF",
"a 	c #EAEAEA",
"b 	c #E9E9EA",
"c 	c #FDFDFD",
"d 	c #E9E9E9",
"e 	c #FEFEFE",
"f 	c #EBEBEB",
"g 	c #CCD4DC",
"h 	c #93A9BF",
"i 	c #EDEDED",
"j 	c #F0F0F1",
"k 	c #EAEAE9",
"l 	c #FCFCFC",
"m 	c #ECECEC",
"n 	c #EBEBEC",
"o 	c #F7F7F7",
"p 	c #E8E8E8",
"q 	c #F0F0F0",
"r 	c #E4E5E5",
"s 	c #F8F8F8",
"t 	c #DEDDDD",
"u 	c #F9F9FA",
"v 	c #E4E4E3",
"w 	c #FBFCFC",
"x 	c #D8D9D8",
"y 	c #F6F7F7",
"z 	c #DEDEDE",
"A 	c #F4F5F5",
"B 	c #DCDCDC",
"C 	c #EDEDEE",
"D 	c #F6F6F5",
"E 	c #E5E6E6",
"F 	c #FAF9F9",
"G 	c #E5E5E5",
"H 	c #F9FAFA",
"I 	c #E2E2E2",
"J 	c #FAFAFA",
"K 	c #E0E1E1",
"L 	c #E1E1E0",
"M 	c #E8E8E9",
"N 	c #8B939B",
"O 	c #D6DDE4",
"P 	c #E6E7E8",
"Q 	c #E6E6E7",
"R 	c #FBFBFB",
"S 	c #FBFBFC",
"T 	c #FCFCFD",
"U 	c #8A929A",
"V 	c #DAE2E9",
"W 	c #F4F4F4",
"X 	c #F3F4F4",
"Y 	c #F2F3F2",
"Z 	c #F9F9F9",
"` 	c #FEFFFF",
" .	c #868F98",
"..	c #B6C9D9",
"+.	c #D1D7DD",
"@.	c #D8DCE0",
"#.	c #D7DBDF",
"$.	c #D9DDE1",
"%.	c #D6DADE",
"&.	c #E0E4E8",
"*.	c #E1E5E9",
"=.	c #D8DADD",
"-.	c #D4D5D6",
";.	c #D5D6D8",
">.	c #D8D8DB",
",.	c #D8D8DA",
"'.	c #DDDEE0",
").	c #828C97",
"!.	c #92AFC8",
"~.	c #B0BECC",
"{.	c #C8D1DB",
"].	c #C4CED8",
"^.	c #C5CED7",
"/.	c #C3CDD7",
"(.	c #D7E1EA",
"_.	c #D5E0EB",
":.	c #BBC3CD",
"<.	c #B4BAC3",
"[.	c #B5BAC3",
"}.	c #B8BDC6",
"|.	c #B8BDC7",
"1.	c #C7CDD6",
"    .                           ",
"    . .                         ",
"  + . . .                       ",
"  + . . . . @ # # # # # # # # $ ",
"  + . . . . . % & * = - % ; > , ",
"  + . . . . . . ' ) ! ~ { ] ^ / ",
"  + . . . . . + ( _ : < [ } | 1 ",
"  + . . . . + 2 3 4 5 6 5 7 8 9 ",
"  + . . . + 0 a 0 b c d e f g h ",
"  + . . + i 0 j e k l m l n o p ",
"  + . + q r s t u v w x y z A B ",
"  + + C D E F G H I J K H L o M ",
"  N O P s Q R G S Q 0 c 0 l 0 T ",
"  U V W R X e Y e W 0 Z 0 J ` J ",
"   ...+.@.#.$.%.&.*.=.-.;.>.,.'.",
"  ).!.~.{.].^./.(._.:.<.[.}.|.1."};
