/* XPM */
static char * remove_xpm[] = {
"16 16 43 1",
" 	c None",
".	c #D80000",
"+	c #DE0000",
"@	c #DC0000",
"#	c #F90000",
"$	c #FD0000",
"%	c #E20000",
"&	c #FA0000",
"*	c #FB0000",
"=	c #DA0606",
"-	c #FF0000",
";	c #E70000",
">	c #847474",
",	c #B53737",
"'	c #E90000",
")	c #FC0000",
"!	c #808080",
"~	c #B73737",
"{	c #F60505",
"]	c #857777",
"^	c #BB3333",
"/	c #FA0202",
"(	c #F80101",
"_	c #D10C0C",
":	c #BE3131",
"<	c #D70202",
"[	c #E80000",
"}	c #DE0909",
"|	c #847676",
"1	c #AE4040",
"2	c #FE0000",
"3	c #AF4040",
"4	c #F40707",
"5	c #E10000",
"6	c #847979",
"7	c #D90101",
"8	c #CE0A0A",
"9	c #AC4141",
"0	c #C81717",
"a	c #B23939",
"b	c #C31818",
"c	c #827878",
"d	c #827777",
"   .       +    ",
"  @#$     %&*   ",
" =---$   ;---*  ",
">,----$ ')----* ",
" !~{----------&+",
"  ]~----------% ",
"   !^/------(_  ",
"    :/------<   ",
"   %-------$    ",
"  [*--------$   ",
" }------//---$  ",
"|12-----:^----$ ",
" !34--#5 !~{--#.",
"  632-7   ]~-$8 ",
"   !90     !ab  ",
"    c       d   "};
