/* XPM */
static char * schedule_xpm[] = {
"16 16 171 2",
"  	c None",
". 	c #5E8DC5",
"+ 	c #4787C6",
"@ 	c #4384C5",
"# 	c #4887C6",
"$ 	c #4283C5",
"% 	c #3F81C4",
"& 	c #5C91C7",
"* 	c #518AC4",
"= 	c #7C8A98",
"- 	c #90ABD1",
"; 	c #81ADDC",
"> 	c #95B6DA",
", 	c #A0BEDC",
"' 	c #9EBDDC",
") 	c #81ADD9",
"! 	c #82ADDA",
"~ 	c #85B1DD",
"{ 	c #83AFDC",
"] 	c #7FABD7",
"^ 	c #7AABDD",
"/ 	c #76A7DC",
"( 	c #7FABDA",
"_ 	c #7DA9D9",
": 	c #8B939C",
"< 	c #81ADE1",
"[ 	c #80B0E9",
"} 	c #96B9E7",
"| 	c #C5D7EB",
"1 	c #EFEFEF",
"2 	c #D5D5D5",
"3 	c #CBCBCB",
"4 	c #E8E9E9",
"5 	c #E6E6E6",
"6 	c #CDCDCD",
"7 	c #D5D5D6",
"8 	c #BCD2ED",
"9 	c #A5C2E7",
"0 	c #74A9E9",
"a 	c #8DB3E4",
"b 	c #858F99",
"c 	c #C1D0E1",
"d 	c #D3DEEA",
"e 	c #A6C3E2",
"f 	c #92B6DE",
"g 	c #91B7DE",
"h 	c #92B8DF",
"i 	c #91B8DF",
"j 	c #9ABCE0",
"k 	c #8FB6DE",
"l 	c #99BCE0",
"m 	c #90B7DE",
"n 	c #94B8DE",
"o 	c #ABC6E3",
"p 	c #D4DEEA",
"q 	c #CAD7E6",
"r 	c #838D97",
"s 	c #BFCEDD",
"t 	c #D4DFE8",
"u 	c #B1CAE4",
"v 	c #9FBEDC",
"w 	c #9FBFE0",
"x 	c #96B7D9",
"y 	c #9DBFE0",
"z 	c #9FBCDB",
"A 	c #9BBDE0",
"B 	c #A0BDDB",
"C 	c #9CBBDA",
"D 	c #96B2CE",
"E 	c #93AAC0",
"F 	c #97ADC3",
"G 	c #88919A",
"H 	c #DBE3EC",
"I 	c #F6F6F6",
"J 	c #FFFFFF",
"K 	c #ECECEC",
"L 	c #EAEAEA",
"M 	c #E9E9EA",
"N 	c #FDFDFD",
"O 	c #E9E9E9",
"P 	c #FEFEFE",
"Q 	c #EBEBEB",
"R 	c #CCD4DC",
"S 	c #93A9BF",
"T 	c #8FA7BF",
"U 	c #DDE5EE",
"V 	c #F7F7F7",
"W 	c #EDEDED",
"X 	c #F0F0F1",
"Y 	c #EAEAE9",
"Z 	c #FCFCFC",
"` 	c #EBEBEC",
" .	c #E8E8E8",
"..	c #D5DFE8",
"+.	c #89919A",
"@.	c #CCD4DD",
"#.	c #F0F0F0",
"$.	c #E4E5E5",
"%.	c #F8F8F8",
"&.	c #DEDDDD",
"*.	c #F9F9FA",
"=.	c #E4E4E3",
"-.	c #FBFCFC",
";.	c #D8D9D8",
">.	c #F6F7F7",
",.	c #DEDEDE",
"'.	c #F4F5F5",
").	c #DCDCDC",
"!.	c #D3DCE6",
"~.	c #8A929A",
"{.	c #D2DAE2",
"].	c #EDEDEE",
"^.	c #F6F6F5",
"/.	c #E5E6E6",
"(.	c #FAF9F9",
"_.	c #E5E5E5",
":.	c #F9FAFA",
"<.	c #E2E2E2",
"[.	c #FAFAFA",
"}.	c #E0E1E1",
"|.	c #E1E1E0",
"1.	c #E8E8E9",
"2.	c #DAE4ED",
"3.	c #8B939B",
"4.	c #D6DDE4",
"5.	c #E6E7E8",
"6.	c #E6E6E7",
"7.	c #FBFBFB",
"8.	c #FBFBFC",
"9.	c #FCFCFD",
"0.	c #DFE8F2",
"a.	c #DAE2E9",
"b.	c #F4F4F4",
"c.	c #F3F4F4",
"d.	c #F2F3F2",
"e.	c #F9F9F9",
"f.	c #FEFFFF",
"g.	c #DDE7F0",
"h.	c #868F98",
"i.	c #B6C9D9",
"j.	c #D1D7DD",
"k.	c #D8DCE0",
"l.	c #D7DBDF",
"m.	c #D9DDE1",
"n.	c #D6DADE",
"o.	c #E0E4E8",
"p.	c #E1E5E9",
"q.	c #D8DADD",
"r.	c #D4D5D6",
"s.	c #D5D6D8",
"t.	c #D8D8DB",
"u.	c #D8D8DA",
"v.	c #DDDEE0",
"w.	c #C1CBD6",
"x.	c #828C97",
"y.	c #92AFC8",
"z.	c #B0BECC",
"A.	c #C8D1DB",
"B.	c #C4CED8",
"C.	c #C5CED7",
"D.	c #C3CDD7",
"E.	c #D7E1EA",
"F.	c #D5E0EB",
"G.	c #BBC3CD",
"H.	c #B4BAC3",
"I.	c #B5BAC3",
"J.	c #B8BDC6",
"K.	c #B8BDC7",
"L.	c #C7CDD6",
"M.	c #AFBCCE",
"N.	c #808080",
"                                ",
"  . + @ # $ % % % % % % % % & * ",
"= - ; > , ' ) ! ~ { ] ) ^ / ( _ ",
": < [ } | 1 2 3 4 5 6 7 8 9 0 a ",
"b c d e f g h i j k l m n o p q ",
"r s t u v w x y z A B A C D E F ",
"G H I J K J L J M N O P Q R S T ",
"G U V J W J X P Y Z K Z ` V  ...",
"+.@. .#.$.%.&.*.=.-.;.>.,.'.).!.",
"~.{.].^./.(._.:.<.[.}.:.|.V 1.2.",
"3.4.5.%.6.7._.8.6.J N J Z J 9.0.",
"~.a.b.7.c.P d.P b.J e.J [.f.[.g.",
"h.i.j.k.l.m.n.o.p.q.r.s.t.u.v.w.",
"x.y.z.A.B.C.D.E.F.G.H.I.J.K.L.M.",
"N.N.N.N.N.N.N.N.N.N.N.N.N.N.N.  ",
"                                "};
