/* XPM */
static char * start_xpm[] = {
"16 16 76 1",
" 	c None",
".	c #B3B3D9",
"+	c #808080",
"@	c #A3A3CE",
"#	c #ADADFF",
"$	c #8A8AF0",
"%	c #9A9ACE",
"&	c #9F9FFF",
"*	c #8181FE",
"=	c #6767F6",
"-	c #9191CE",
";	c #8F8FFF",
">	c #7070FF",
",	c #5858FF",
"'	c #3B3BFF",
")	c #2828F3",
"!	c #8C8CCE",
"~	c #8787FF",
"{	c #6767FF",
"]	c #4D4DFF",
"^	c #2C2CFF",
"/	c #1616FF",
"(	c #2828F9",
"_	c #3B3BF1",
":	c #8888CE",
"<	c #8181FF",
"[	c #6060FF",
"}	c #4545FF",
"|	c #2424FF",
"1	c #0C0CFF",
"2	c #2121FF",
"3	c #3C3CFF",
"4	c #5959F8",
"5	c #6A6AF1",
"6	c #8787CE",
"7	c #7F7FFF",
"8	c #5E5EFF",
"9	c #4343FF",
"0	c #2222FF",
"a	c #0B0BFF",
"b	c #1F1FFF",
"c	c #3A3AFF",
"d	c #5B5BFF",
"e	c #7575FD",
"f	c #8181E4",
"g	c #8989CE",
"h	c #8383FF",
"i	c #6161FF",
"j	c #4747FF",
"k	c #2525FF",
"l	c #0E0EFF",
"m	c #3D3DFF",
"n	c #5B5BED",
"o	c #6D6DC8",
"p	c #8888FF",
"q	c #6868FF",
"r	c #4E4EFF",
"s	c #2D2DFF",
"t	c #1919FF",
"u	c #2C2CF7",
"v	c #4C4CCB",
"w	c #9292CE",
"x	c #9393FF",
"y	c #7474FF",
"z	c #5D5DFF",
"A	c #4242F8",
"B	c #3333EF",
"C	c #9E9EFF",
"D	c #8282FF",
"E	c #6B6BF0",
"F	c #5B5BBF",
"G	c #A5A5CD",
"H	c #AAAAF2",
"I	c #8888DC",
"J	c #9797AC",
"K	c #9B9BC1",
"                ",
"    .           ",
"   +@#$         ",
"   +%&*=        ",
"   +-;>,')      ",
"   +!~{]^/(_    ",
"   +:<[}|12345  ",
"   +67890abcdef ",
"   +ghijkl0mno  ",
"   +!pqrstuv    ",
"   +wxyzAB      ",
"   +%CDEF       ",
"   +GHI         ",
"   +JK          ",
"                ",
"                "};
