/* XPM */
static char * startall_xpm[] = {
"16 16 81 1",
" 	c None",
".	c #9090A3",
"+	c #B3B3FF",
"@	c #9696F4",
"#	c #7E7EB0",
"$	c #8C8CA3",
"%	c #A4A4FF",
"&	c #8D8DFF",
"*	c #7878D3",
"=	c #6E6EFA",
"-	c #5555F2",
";	c #8787A3",
">	c #9696FF",
",	c #7C7CFF",
"'	c #6D6DD5",
")	c #5E5EFF",
"!	c #4646FF",
"~	c #2C2CF9",
"{	c #2525F2",
"]	c #8585A3",
"^	c #8E8EFF",
"/	c #7474FF",
"(	c #6767D5",
"_	c #5353FF",
":	c #3939FF",
"<	c #1B1BFF",
"[	c #1D1DFD",
"}	c #3636F2",
"|	c #8383A3",
"1	c #8888FF",
"2	c #6D6DFF",
"3	c #6262D5",
"4	c #4C4CFF",
"5	c #3131FF",
"6	c #1111FF",
"7	c #1414FF",
"8	c #3535FF",
"9	c #4F4FFE",
"0	c #6464EE",
"a	c #8686FF",
"b	c #6C6CFF",
"c	c #6161D5",
"d	c #4A4AFF",
"e	c #2F2FFF",
"f	c #0F0FFF",
"g	c #1212FF",
"h	c #3333FF",
"i	c #4E4EFF",
"j	c #6E6EFE",
"k	c #7F7FEC",
"l	c #8484A3",
"m	c #8989FF",
"n	c #6F6FFF",
"o	c #6363D5",
"p	c #1515FF",
"q	c #3636FF",
"r	c #5151F2",
"s	c #6969DC",
"t	c #5555FF",
"u	c #3A3AFF",
"v	c #1D1DFF",
"w	c #1F1FFF",
"x	c #4444DA",
"y	c #5858C1",
"z	c #8888A3",
"A	c #9999FF",
"B	c #8080FF",
"C	c #7070D5",
"D	c #6262FF",
"E	c #4B4BFF",
"F	c #3737ED",
"G	c #4141C7",
"H	c #7A7AD5",
"I	c #7171F8",
"J	c #6060CC",
"K	c #9191A3",
"L	c #B3B3F8",
"M	c #9898EF",
"N	c #7B7B9D",
"O	c #8D8D98",
"P	c #9D9DBE",
"                ",
"                ",
" .+@#.+@        ",
" $%&*$%&=-      ",
" ;>,';>,)!~{    ",
" ]^/(]^/_:<[}   ",
" |123|124567890 ",
" |abc|abdefghijk",
" lmnolmnihgpqrs ",
" ]^/(]^/tuvwxy  ",
" zABCzABDEFG    ",
" $%&H$%&IJ      ",
" KLMNKLM        ",
" OP  OP         ",
"                ",
"                "};
