/* XPM */
static char * stop_xpm[] = {
"16 16 63 1",
" 	c None",
".	c #3838D9",
"+	c #8B8BDA",
"@	c #3B3BFF",
"#	c #7B7BF7",
"$	c #8F8FAB",
"%	c #7979ED",
"&	c #3939FF",
"*	c #8E8EEF",
"=	c #808080",
"-	c #7D7DD4",
";	c #3232FF",
">	c #6F6FF7",
",	c #848496",
"'	c #6C6CEB",
")	c #3131FF",
"!	c #8282EF",
"~	c #7373D4",
"{	c #2C2CFF",
"]	c #6565F7",
"^	c #818196",
"/	c #6363EB",
"(	c #2B2BFF",
"_	c #7777EF",
":	c #6F6FD4",
"<	c #2929FF",
"[	c #6060F7",
"}	c #7F7F96",
"|	c #5F5FEB",
"1	c #7272EF",
"2	c #6B6BD4",
"3	c #2727FF",
"4	c #5D5DF7",
"5	c #7E7E96",
"6	c #5B5BEB",
"7	c #6E6EEF",
"8	c #5C5CF7",
"9	c #6D6DD4",
"0	c #2828FF",
"a	c #5F5FF7",
"b	c #5E5EEB",
"c	c #7171EF",
"d	c #6464F7",
"e	c #7878EF",
"f	c #7979D4",
"g	c #2F2FFF",
"h	c #6B6BF7",
"i	c #838396",
"j	c #6A6AEB",
"k	c #3030FF",
"l	c #7F7FEF",
"m	c #8787D3",
"n	c #7979F7",
"o	c #878795",
"p	c #7777E9",
"q	c #8D8DEE",
"r	c #8181A0",
"s	c #5B5BB5",
"t	c #7979BD",
"u	c #83838A",
"v	c #7A7AA0",
"w	c #6161A8",
"x	c #8686BF",
"                ",
"          .     ",
"    +@# $%&*    ",
"   =-;> ,')!    ",
"   =~{] ^/(_    ",
"   =:<[ }|<1    ",
"   =234 5637    ",
"   =238 5637    ",
"   =234 5637    ",
"   =90a 5b0c    ",
"   =~(d ^/{e    ",
"   =fgh ijkl    ",
"   =m&n op&q    ",
"    rst uvwx    ",
"                ",
"                "};
