/* XPM */
static char * stopall_xpm[] = {
"16 16 101 2",
"  	c None",
". 	c #8787D7",
"+ 	c #3838FF",
"@ 	c #7878F7",
"# 	c #89899E",
"$ 	c #7575EC",
"% 	c #3737FF",
"& 	c #8B8BEF",
"* 	c #808080",
"= 	c #7878D4",
"- 	c #2F2FFF",
"; 	c #6A6AF7",
"> 	c #828296",
", 	c #6868EB",
"' 	c #2E2EFF",
") 	c #7D7DEF",
"! 	c #7272D4",
"~ 	c #2B2BFF",
"{ 	c #6464F7",
"] 	c #8B8BC5",
"^ 	c #4A4AF8",
"/ 	c #6363F9",
"( 	c #8787E9",
"_ 	c #7777E8",
": 	c #3A3AF2",
"< 	c #8C8CEB",
"[ 	c #6D6DD4",
"} 	c #2828FF",
"| 	c #5E5EF7",
"1 	c #8080A2",
"2 	c #8080D4",
"3 	c #3434FF",
"4 	c #7272F7",
"5 	c #8888E7",
"6 	c #858596",
"7 	c #6F6FEB",
"8 	c #3333FF",
"9 	c #8585EF",
"0 	c #6B6BD4",
"a 	c #2727FF",
"b 	c #5C5CF7",
"c 	c #7F7FA2",
"d 	c #7777D4",
"e 	c #6868F7",
"f 	c #8383E7",
"g 	c #6666EB",
"h 	c #2D2DFF",
"i 	c #7B7BEF",
"j 	c #7070D4",
"k 	c #2929FF",
"l 	c #6161F7",
"m 	c #8080E7",
"n 	c #7F7F96",
"o 	c #6060EB",
"p 	c #7373EF",
"q 	c #6C6CD4",
"r 	c #5D5DF7",
"s 	c #7F7FE7",
"t 	c #7E7E96",
"u 	c #5C5CEB",
"v 	c #6F6FEF",
"w 	c #6F6FD4",
"x 	c #8181A2",
"y 	c #8282E7",
"z 	c #5B5BEB",
"A 	c #6E6EEF",
"B 	c #7474D4",
"C 	c #2C2CFF",
"D 	c #6666F7",
"E 	c #8383A2",
"F 	c #8686E7",
"G 	c #7E7ED4",
"H 	c #7070F7",
"I 	c #8787A2",
"J 	c #8F8FE7",
"K 	c #7070EF",
"L 	c #8989D3",
"M 	c #3C3CFF",
"N 	c #7D7DF7",
"O 	c #8B8BA2",
"P 	c #2A2AFF",
"Q 	c #6262F7",
"R 	c #9797E5",
"S 	c #808096",
"T 	c #7575EF",
"U 	c #7B7B87",
"V 	c #6A6A90",
"W 	c #6969F7",
"X 	c #8181D4",
"Y 	c #3535FF",
"Z 	c #7373F7",
"` 	c #868696",
" .	c #7272EB",
"..	c #8787EF",
"+.	c #8787B9",
"@.	c #4D4DDA",
"#.	c #7D7DDE",
"$.	c #85858E",
"%.	c #7B7BC3",
"&.	c #4F4FD4",
"*.	c #8E8EDC",
"                                ",
"    . + @   # $ % &             ",
"  * = - ;   > , ' )             ",
"  * ! ~ {   ] ^ / (   _ : <     ",
"  * [ } | 1 2 3 4 5 6 7 8 9     ",
"  * 0 a b c d ' e f > g h i     ",
"  * 0 a b c j k l m n o k p     ",
"  * q a r c q } | s t u } v     ",
"  * w k l x 0 a b y t z a A     ",
"  * B C D E 0 a b F t z a A     ",
"  * G 8 H I [ } | J t u } K     ",
"  * L M N O j P Q R S o P T     ",
"    U V   * = ' W   > , - )     ",
"          * X Y Z   `  .Y ..    ",
"            +.@.#.  $.%.&.*.    ",
"                                "};
