/* XPM */
static char * wxdfast_xpm[] = {
"16 16 114 2",
"  	c None",
". 	c None",
"+ 	c #1A1A9A",
"@ 	c #000044",
"# 	c #06065A",
"$ 	c #0A0A64",
"% 	c #0C0C6C",
"& 	c #0E0E77",
"* 	c #0F0F80",
"= 	c #080880",
"- 	c #2727BF",
"; 	c #2727DB",
"> 	c #0D0D96",
", 	c #06067B",
"' 	c #2F2FBE",
") 	c #5151FF",
"! 	c #4C4CF6",
"~ 	c #4242E2",
"{ 	c #4E4EF9",
"] 	c #4848FF",
"^ 	c #2121BF",
"/ 	c #1A1AB2",
"( 	c #000066",
"_ 	c #0B0B7A",
": 	c #282899",
"< 	c #04046D",
"[ 	c #3232C4",
"} 	c #1D1D80",
"| 	c #0C0C7C",
"1 	c #2E2EBF",
"2 	c #0D0D73",
"3 	c #4A4AF2",
"4 	c #4A4AFF",
"5 	c #1A1A80",
"6 	c #0E0E80",
"7 	c #2828D8",
"8 	c #671561",
"9 	c #670C40",
"0 	c #680D40",
"a 	c #872C7A",
"b 	c #92378E",
"c 	c #7A1C4E",
"d 	c #8E2A8F",
"e 	c #942A90",
"f 	c #98248A",
"g 	c #0F0F83",
"h 	c #2323AF",
"i 	c #A21212",
"j 	c #D42222",
"k 	c #FF3030",
"l 	c #FD2F2F",
"m 	c #E42727",
"n 	c #E22727",
"o 	c #E62828",
"p 	c #FA2E2E",
"q 	c #F21C1C",
"r 	c #101085",
"s 	c #33001A",
"t 	c #880A0A",
"u 	c #FC2F2F",
"v 	c #FB2E2E",
"w 	c #8A1743",
"x 	c #390101",
"y 	c #700303",
"z 	c #C21E1E",
"A 	c #E61F1F",
"B 	c #101084",
"C 	c #0D0D5F",
"D 	c #00007C",
"E 	c #860A0A",
"F 	c #780D3A",
"G 	c #540000",
"H 	c #D11C1C",
"I 	c #A71414",
"J 	c #540606",
"K 	c #000085",
"L 	c #0000A0",
"M 	c #1313AC",
"N 	c #1111E1",
"O 	c #0B0BE2",
"P 	c #FB2F2F",
"Q 	c #FE3030",
"R 	c #FE1A1A",
"S 	c #FA1F1F",
"T 	c #EE2A2A",
"U 	c #801212",
"V 	c #1A1A9B",
"W 	c #00003E",
"X 	c #14149A",
"Y 	c #3A3AD7",
"Z 	c #4141E0",
"` 	c #4040DE",
" .	c #840909",
"..	c #F92E2E",
"+.	c #DC2424",
"@.	c #D92424",
"#.	c #E52828",
"$.	c #F72E2E",
"%.	c #760606",
"&.	c #4C0000",
"*.	c #BC1B1B",
"=.	c #6E1010",
"-.	c #820909",
";.	c #720A0A",
">.	c #6E1C81",
",.	c #BA0E0E",
"'.	c #BE0F0F",
").	c #9A1F84",
"!.	c #A61111",
"~.	c #EC2828",
"{.	c #EF2A2A",
"].	c #EE2929",
"^.	c #ED2828",
"/.	c #DE1919",
". . . . . . . . . . . . . . . . ",
"+ @ # $ % & * = - . . . . . . . ",
"; > , ' ) ! ~ { ] ^ - . . . . . ",
". / ( _ ) : ( < [ ) } . . . . . ",
". / ( | ) 1 2 ( < 3 4 5 . . . . ",
". / ( 6 ) 7 8 9 0 a b c d e f - ",
". / ( g ) h i j k l m n o p q 5 ",
". / ( r ) 5 s t u v w x y z A 5 ",
". / ( B ) C D E p k F G H I J 5 ",
"; K L M ) N O E P Q R S T U . . ",
"V W X Y Z Z `  ...k +.@.#.U . . ",
". . - 5 5 5 5  .$.k %.&.*.=.. . ",
". . . . . . . -.$.k ;.- 5 5 . . ",
". . . . . . >.,.$.k '.).- . . . ",
". . . . . . !.~.{.].^./.5 . . . ",
". . . . . . 5 5 5 5 5 5 - . . . "};
